<svg xmlns="http://www.w3.org/2000/svg" xmlns:xlink="http://www.w3.org/1999/xlink" viewBox="0 0 139 27"><defs><path d="M5.89 32V21.375c0-.292.055-.568.165-.828.11-.26.26-.49.453-.688A2.062 2.062 0 018 19.234a2.117 2.117 0 011.516.625 2.128 2.128 0 01.625 1.516V32h4.265V21.375c0-.292.055-.568.164-.828.11-.26.26-.49.453-.688a2.062 2.062 0 011.493-.625 2.117 2.117 0 011.515.625 2.128 2.128 0 01.625 1.516V32h4.25V21.375c0-.885-.166-1.719-.5-2.5a6.407 6.407 0 00-1.367-2.04 6.431 6.431 0 00-2.031-1.366 6.247 6.247 0 00-2.492-.5c-.386 0-.776.034-1.172.101-.396.068-.779.18-1.149.336-.37.156-.721.36-1.054.61-.334.25-.63.552-.891.906-.563-.719-1.216-1.224-1.96-1.516A6.227 6.227 0 008 14.97c-.77 0-1.513.138-2.227.414a6.88 6.88 0 00-1.96 1.164l-1.157-1.281H1.625V32h4.266zm27.782.313a6.4 6.4 0 001.601-.204 8.772 8.772 0 001.54-.554c.5-.235.976-.51 1.43-.828.452-.318.882-.66 1.288-1.024L41.188 32h1.03V15.297h-1.03L39.53 17.28c-.396-.375-.82-.724-1.273-1.047a9.628 9.628 0 00-1.43-.843 8.338 8.338 0 00-1.547-.563 6.491 6.491 0 00-1.61-.203 8.538 8.538 0 00-3.32.648 8.287 8.287 0 00-2.718 1.82 8.539 8.539 0 00-1.836 2.805c-.448 1.089-.672 2.284-.672 3.586 0 1.396.224 2.641.672 3.735.448 1.093 1.06 2.018 1.836 2.773a7.888 7.888 0 002.719 1.727 9.227 9.227 0 003.32.593zm0-4.282a4.56 4.56 0 01-1.649-.297 3.753 3.753 0 01-1.343-.875 4.107 4.107 0 01-.899-1.43c-.218-.567-.328-1.215-.328-1.945 0-.729.11-1.377.328-1.945a4.107 4.107 0 01.899-1.43c.38-.385.828-.677 1.343-.875a4.56 4.56 0 011.649-.297c.583 0 1.133.128 1.648.383.516.256.966.594 1.352 1.016.385.422.69.906.914 1.453a4.433 4.433 0 010 3.39 4.872 4.872 0 01-.914 1.454c-.386.422-.836.76-1.352 1.015a3.667 3.667 0 01-1.648.383zM49.734 32v-9.219a3.228 3.228 0 01.938-2.297 3.228 3.228 0 012.297-.938h3.765v-4.25H52.97c-.938 0-1.844.17-2.719.509a7.449 7.449 0 00-2.344 1.445L46.5 15.266h-1.031V32h4.265zm13.282 0V8.61h-4.297V32h4.297zm5.406-18.438c.396 0 .768-.075 1.117-.226.349-.151.654-.354.914-.61a2.85 2.85 0 00.617-.898c.151-.344.227-.713.227-1.11a2.825 2.825 0 00-.844-2.008 2.988 2.988 0 00-.914-.608 2.782 2.782 0 00-1.117-.227c-.396 0-.768.076-1.117.227a2.89 2.89 0 00-.907.609 2.89 2.89 0 00-.609.906 2.744 2.744 0 00-.227 1.102c0 .396.076.765.227 1.11.151.343.354.642.61.898.255.255.557.458.906.609.349.151.721.226 1.117.226zM70.562 32V15.266h-4.296V32h4.296zm7.516 0V21.375c0-.292.055-.568.164-.828.11-.26.26-.49.453-.688a2.062 2.062 0 011.493-.625 2.117 2.117 0 011.515.625 2.128 2.128 0 01.625 1.516V32h4.266V21.375c0-.292.054-.568.164-.828.11-.26.26-.49.453-.688a2.062 2.062 0 011.492-.625 2.117 2.117 0 011.516.625 2.128 2.128 0 01.625 1.516V32h4.25V21.375a6.407 6.407 0 00-1.867-4.54 6.431 6.431 0 00-2.032-1.366 6.247 6.247 0 00-2.492-.5c-.385 0-.776.034-1.172.101-.396.068-.778.18-1.148.336-.37.156-.722.36-1.055.61-.333.25-.63.552-.89.906-.563-.719-1.217-1.224-1.961-1.516a6.227 6.227 0 00-2.29-.437c-.77 0-1.513.138-2.226.414A6.88 6.88 0 0076 16.547l-1.156-1.281h-1.031V32h4.265zm22.719 1.094c.375 0 .724-.07 1.047-.211.323-.14.604-.33.844-.57.24-.24.427-.524.562-.852.135-.328.203-.68.203-1.055a2.64 2.64 0 00-2.656-2.656c-.365 0-.711.07-1.04.21-.327.142-.614.332-.859.571-.244.24-.437.521-.578.844-.14.323-.21.667-.21 1.031a2.649 2.649 0 00.788 1.907c.245.24.532.43.86.57.328.14.674.21 1.039.21zm13.453-.782c.698 0 1.378-.08 2.04-.242a8.355 8.355 0 001.89-.71 8.626 8.626 0 001.672-1.141 8.412 8.412 0 001.367-1.516l-3.125-3.14a4.106 4.106 0 01-1.555 1.804c-.338.214-.7.378-1.086.492a4.2 4.2 0 01-1.203.172 4.177 4.177 0 01-2.992-1.234 4.314 4.314 0 01-.899-1.344 4.12 4.12 0 01-.328-1.64c0-.72.11-1.375.328-1.97a4.832 4.832 0 01.899-1.538c.38-.433.828-.769 1.344-1.008a3.865 3.865 0 011.648-.36 4.024 4.024 0 012.32.735 4.304 4.304 0 011.555 2.062l3.125-3.14a7.728 7.728 0 00-1.336-1.688 8.292 8.292 0 00-3.61-2.015 8.028 8.028 0 00-2.054-.266c-1.177 0-2.284.24-3.32.719a8.685 8.685 0 00-2.72 1.96 9.268 9.268 0 00-1.835 2.915c-.448 1.114-.672 2.312-.672 3.593 0 1.178.224 2.282.672 3.313a8.598 8.598 0 001.836 2.703 8.624 8.624 0 002.719 1.82 8.363 8.363 0 003.32.665zm16.453 0c1.188 0 2.3-.226 3.336-.68a8.552 8.552 0 002.711-1.859 8.736 8.736 0 001.828-2.796c.448-1.079.672-2.243.672-3.493 0-1.333-.224-2.544-.672-3.632-.448-1.089-1.057-2.021-1.828-2.797a8.06 8.06 0 00-2.71-1.797 8.763 8.763 0 00-3.337-.633 8.28 8.28 0 00-3.32.672 8.538 8.538 0 00-2.719 1.851 8.649 8.649 0 00-1.836 2.805c-.448 1.083-.672 2.26-.672 3.531 0 1.25.224 2.414.672 3.493a8.67 8.67 0 001.836 2.796 8.645 8.645 0 002.719 1.86 8.197 8.197 0 003.32.68zm0-4.28a3.937 3.937 0 01-1.648-.352 4.203 4.203 0 01-1.344-.961 4.51 4.51 0 01-.898-1.438 4.834 4.834 0 01-.329-1.797c0-.687.11-1.31.329-1.867a4.399 4.399 0 01.898-1.437c.38-.401.828-.709 1.344-.922a4.265 4.265 0 011.648-.32c.583 0 1.133.106 1.649.32.515.213.966.52 1.351.922.386.4.69.88.914 1.437.224.557.336 1.18.336 1.867 0 .677-.112 1.297-.336 1.86a4.326 4.326 0 01-.914 1.437 4.103 4.103 0 01-1.351.922 4.177 4.177 0 01-1.649.328z" id="a"/></defs><g transform="translate(-1 -7)" fill-rule="nonzero" fill="none"><use fill="#000" xlink:href="#a"/><use fill="#373286" xlink:href="#a"/></g></svg>