<svg xmlns="http://www.w3.org/2000/svg" xmlns:xlink="http://www.w3.org/1999/xlink" viewBox="0 0 803 381">
  <defs>
    <linearGradient x1="36.694%" y1="34.064%" x2="48.2%" y2="55.832%" id="logo_b">
      <stop stopColor="#363189" offset="0%"/>
      <stop stopColor="#E4006B" offset="100%"/>
    </linearGradient>
    <path d="M210.927 223.907c74.156-6.181 234.012-85.63 262.303-96.077l-127.206 16.656c43.758-5.81 247.62-77.565 270.93-86.23 0 0-105.225 32.042-208.699 31.862C298.068 89.926 278.595 0 278.595 0c-73.75 43.55-125.728 228.746-67.668 223.907z" id="logo_a"/>
  </defs>
  <g fill="none" fillRule="evenodd">
    <path d="M123.975 375H99.22v-62.991c0-1.734-.326-3.365-.952-4.92a12.344 12.344 0 00-2.681-4.079 12.106 12.106 0 00-4.009-2.728 12.42 12.42 0 00-4.836-.968c-1.703 0-3.282.331-4.785.968a11.957 11.957 0 00-3.909 2.728 12.614 12.614 0 00-2.63 4.079 13.021 13.021 0 00-.953 4.92V375H49.61v-62.991c0-1.734-.326-3.365-.952-4.92a12.344 12.344 0 00-2.681-4.079 12.106 12.106 0 00-4.009-2.728 12.42 12.42 0 00-4.836-.968c-1.703 0-3.282.331-4.785.968a11.957 11.957 0 00-3.909 2.728 12.614 12.614 0 00-2.63 4.079 13.021 13.021 0 00-.953 4.92V375H0v-99.216h6.013l6.74 7.597c3.458-2.957 7.266-5.277 11.426-6.908a35.264 35.264 0 0112.978-2.448c4.56 0 8.995.867 13.33 2.6 4.335 1.734 8.143 4.717 11.425 8.974 1.529-2.09 3.258-3.9 5.187-5.379a30.174 30.174 0 016.138-3.62 30.644 30.644 0 016.69-1.988 39.199 39.199 0 016.84-.612c5.162 0 9.998.994 14.533 2.957 4.51 1.988 8.468 4.69 11.826 8.107 3.357 3.416 6.013 7.469 7.968 12.083 1.954 4.64 2.906 9.585 2.906 14.81V375h-.025zM237 374.137h-6.038l-9.685-13.63a76.758 76.758 0 01-7.547 6.075 55.237 55.237 0 01-8.378 4.926 48.991 48.991 0 01-9.006 3.292c-3.07.792-6.214 1.2-9.359 1.2-6.893 0-13.358-1.174-19.421-3.522-6.063-2.348-11.371-5.768-15.9-10.26-4.553-4.492-8.125-9.98-10.741-16.462-2.617-6.483-3.925-13.885-3.925-22.18 0-7.733 1.308-14.828 3.925-21.285 2.616-6.458 6.188-12.021 10.742-16.641 4.528-4.645 9.836-8.244 15.899-10.796 6.063-2.552 12.528-3.854 19.421-3.854 3.17 0 6.315.408 9.41 1.2a48.995 48.995 0 019.056 3.343 58.296 58.296 0 018.377 5.002 70.488 70.488 0 017.447 6.202l9.685-11.791H237v99.18zm-25.132-50.535c0-3.471-.654-6.814-1.962-10.056-1.309-3.241-3.095-6.125-5.359-8.626-2.264-2.502-4.88-4.518-7.9-6.024a21.335 21.335 0 00-9.634-2.271c-3.422 0-6.617.587-9.636 1.76a21.987 21.987 0 00-7.874 5.207c-2.214 2.297-3.975 5.105-5.258 8.5-1.283 3.368-1.912 7.222-1.912 11.536 0 4.338.63 8.167 1.912 11.536 1.283 3.369 3.02 6.202 5.258 8.499 2.214 2.297 4.855 4.032 7.874 5.206 3.02 1.175 6.24 1.762 9.636 1.762 3.421 0 6.616-.766 9.635-2.272a26.252 26.252 0 007.9-6.023c2.263-2.502 4.024-5.386 5.358-8.627 1.283-3.292 1.962-6.636 1.962-10.107zM279.99 374H255v-99h6.046l8.237 11.752c4.03-3.689 8.615-6.537 13.73-8.547a43.27 43.27 0 0115.92-3.002H321v25.132h-22.067c-2.62 0-5.089.483-7.406 1.475-2.318.992-4.333 2.34-6.046 4.07-1.713 1.73-3.048 3.765-4.03 6.105-.983 2.34-1.462 4.833-1.462 7.479V374zm78.01 1h-25V238h25zm48-124.364c0 2.311-.445 4.473-1.31 6.483-.864 2.01-2.05 3.77-3.556 5.252a17.192 17.192 0 01-5.261 3.568 15.812 15.812 0 01-6.422 1.332c-2.273 0-4.422-.452-6.423-1.332-2-.88-3.73-2.06-5.211-3.568a17.058 17.058 0 01-3.508-5.252c-.864-2.01-1.309-4.172-1.309-6.483 0-2.262.445-4.398 1.31-6.434.864-2.035 2.025-3.794 3.507-5.302a16.676 16.676 0 015.211-3.568 15.813 15.813 0 016.423-1.332c2.272 0 4.421.452 6.422 1.332 2 .88 3.754 2.06 5.261 3.568 1.507 1.483 2.668 3.267 3.557 5.302a16.268 16.268 0 011.309 6.434zM401.776 375H377.1v-97.803h24.676V375zm143.199 0H520.22v-62.991c0-1.734-.326-3.365-.952-4.92a12.344 12.344 0 00-2.681-4.079 12.106 12.106 0 00-4.009-2.728 12.42 12.42 0 00-4.836-.968c-1.703 0-3.282.331-4.785.968a11.957 11.957 0 00-3.909 2.728 12.614 12.614 0 00-2.63 4.079 13.021 13.021 0 00-.953 4.92V375H470.61v-62.991c0-1.734-.326-3.365-.952-4.92a12.344 12.344 0 00-2.681-4.079 12.106 12.106 0 00-4.009-2.728 12.42 12.42 0 00-4.836-.968c-1.703 0-3.282.331-4.785.968a11.957 11.957 0 00-3.909 2.728 12.614 12.614 0 00-2.63 4.079 13.021 13.021 0 00-.953 4.92V375H421v-99.216h6.013l6.74 7.597c3.458-2.957 7.266-5.277 11.426-6.908a35.264 35.264 0 0112.978-2.448c4.56 0 8.995.867 13.33 2.6 4.335 1.734 8.143 4.717 11.425 8.974 1.529-2.09 3.258-3.9 5.187-5.379a30.174 30.174 0 016.138-3.62 30.644 30.644 0 016.69-1.988 39.199 39.199 0 016.84-.612c5.162 0 9.998.994 14.533 2.957 4.51 1.988 8.468 4.69 11.826 8.107 3.357 3.416 6.013 7.469 7.968 12.083 1.954 4.64 2.906 9.585 2.906 14.81V375h-.025zM594 365.413c0 2.17-.4 4.215-1.173 6.11-.799 1.895-1.872 3.541-3.27 4.938-1.398 1.397-3.02 2.494-4.892 3.317-1.872.823-3.894 1.222-6.065 1.222-2.122 0-4.119-.399-6.04-1.222-1.922-.823-3.57-1.92-4.992-3.317a15.037 15.037 0 01-3.345-4.938c-.824-1.895-1.223-3.94-1.223-6.11 0-2.12.4-4.115 1.223-5.986a15.91 15.91 0 013.345-4.888c1.422-1.397 3.095-2.494 4.992-3.317 1.897-.823 3.918-1.222 6.04-1.222 2.171 0 4.193.399 6.065 1.222 1.872.823 3.494 1.92 4.892 3.317 1.398 1.397 2.471 3.018 3.27 4.888a15.51 15.51 0 011.173 5.986zm104-70.85L679.694 313.2a24.79 24.79 0 00-3.752-6.995c-1.586-2.068-3.374-3.83-5.363-5.233a22.892 22.892 0 00-6.446-3.242 23.362 23.362 0 00-7.126-1.124c-3.424 0-6.622.715-9.644 2.145-3.021 1.43-5.64 3.42-7.881 5.974-2.216 2.578-3.978 5.616-5.263 9.139-1.284 3.523-1.913 7.429-1.913 11.692 0 3.472.63 6.714 1.913 9.752 1.285 3.038 3.022 5.693 5.263 7.99 2.216 2.298 4.86 4.085 7.881 5.387 3.022 1.302 6.245 1.94 9.644 1.94 2.443 0 4.784-.332 7.05-1.02a26.24 26.24 0 006.371-2.911 23.7 23.7 0 005.313-4.646c1.561-1.813 2.82-3.855 3.802-6.076l18.306 18.636a49.211 49.211 0 01-8.007 8.986c-3.022 2.655-6.295 4.927-9.795 6.765a47.334 47.334 0 01-11.08 4.212c-3.877.97-7.855 1.43-11.935 1.43-6.899 0-13.37-1.327-19.438-3.931-6.069-2.63-11.382-6.23-15.914-10.8-4.558-4.569-8.133-9.93-10.752-16.057-2.619-6.127-3.928-12.688-3.928-19.657 0-7.608 1.31-14.73 3.928-21.342 2.619-6.612 6.194-12.381 10.752-17.309a50.397 50.397 0 0115.914-11.64c6.068-2.834 12.54-4.264 19.438-4.264 4.08 0 8.108.536 12.036 1.583a47.961 47.961 0 0111.256 4.595 47.845 47.845 0 019.87 7.378A46.76 46.76 0 01698 294.563zm105 29.039c0 7.43-1.308 14.325-3.925 20.735-2.616 6.409-6.188 11.95-10.691 16.597-4.503 4.673-9.787 8.35-15.875 11.031-6.062 2.682-12.578 4.035-19.522 4.035-6.893 0-13.358-1.353-19.421-4.035-6.063-2.68-11.371-6.383-15.9-11.03-4.553-4.674-8.125-10.215-10.741-16.598-2.617-6.41-3.925-13.304-3.925-20.735 0-7.558 1.308-14.53 3.925-20.964 2.616-6.435 6.188-11.976 10.742-16.649 4.528-4.673 9.836-8.324 15.899-11.006 6.063-2.655 12.528-3.983 19.421-3.983 6.944 0 13.46 1.251 19.522 3.754 6.063 2.502 11.346 6.051 15.875 10.673 4.503 4.622 8.075 10.138 10.691 16.598 2.592 6.46 3.925 13.661 3.925 21.577zm-25.157 0c0-4.085-.654-7.788-1.962-11.082-1.309-3.32-3.095-6.154-5.359-8.529s-4.88-4.213-7.9-5.464c-3.018-1.277-6.238-1.89-9.635-1.89-3.421 0-6.616.639-9.635 1.89a22.99 22.99 0 00-7.874 5.464c-2.214 2.375-3.975 5.235-5.258 8.529-1.283 3.32-1.912 6.997-1.912 11.082 0 3.83.63 7.405 1.912 10.674 1.283 3.268 3.019 6.128 5.258 8.528a24.467 24.467 0 007.874 5.695c3.02 1.404 6.24 2.094 9.635 2.094 3.422 0 6.617-.639 9.636-1.941 3.019-1.302 5.66-3.115 7.899-5.464 2.264-2.35 4.025-5.21 5.359-8.53 1.308-3.37 1.962-7.047 1.962-11.056z" fill="#353387" fillRule="nonzero"/>
    <mask id="logo_c" fill="#fff">
      <use xlink:href="#logo_a"/>
    </mask>
    <path d="M210.927 223.907c74.156-6.181 234.012-85.63 262.303-96.077l-127.206 16.656c43.758-5.81 247.62-77.565 270.93-86.23 0 0-105.225 32.042-208.699 31.862C298.068 89.926 278.595 0 278.595 0c-73.75 43.55-125.728 228.746-67.668 223.907z" fill="url(#logo_b)" fillRule="nonzero" mask="url(#logo_c)"/>
  </g>
</svg>