<svg xmlns="http://www.w3.org/2000/svg" viewBox="0 0 17.147 24"><path d="M8.573 19.638a2.181 2.181 0 102.17 2.181 2.181 2.181 0 00-2.17-2.181zM2.17 0a2.181 2.181 0 102.17 2.181A2.181 2.181 0 002.17 0zm0 6.548a2.181 2.181 0 102.17 2.181A2.181 2.181 0 002.17 6.55zm0 6.548a2.181 2.181 0 102.17 2.181 2.181 2.181 0 00-2.17-2.181zm12.807-8.729a2.184 2.184 0 10-2.17-2.186 2.181 2.181 0 002.17 2.186zm-6.4 8.729a2.181 2.181 0 102.17 2.181 2.181 2.181 0 00-2.174-2.181zm6.4 0a2.181 2.181 0 102.17 2.181 2.181 2.181 0 00-2.17-2.181zm0-6.548a2.181 2.181 0 102.17 2.181 2.181 2.181 0 00-2.17-2.179zm-6.4 0a2.181 2.181 0 102.17 2.181A2.181 2.181 0 008.573 6.55zm0-6.548a2.181 2.181 0 102.17 2.181A2.181 2.181 0 008.573 0z" fill="#e0076c"/></svg>