<svg xmlns="http://www.w3.org/2000/svg" viewBox="0 0 24 23.988"><g fill="#e0076c"><path d="M13.378 16.902l-.069.006a.954.954 0 00-.554.259L9.03 20.891a4.2 4.2 0 01-5.939-5.939l3.956-3.956a4.175 4.175 0 01.657-.536 4.239 4.239 0 01.853-.432 4.038 4.038 0 01.865-.213 4.089 4.089 0 01.588-.04c.081 0 .161.006.265.012a4.188 4.188 0 012.7 1.211 4.135 4.135 0 01.986 1.574.908.908 0 001.113.582c.006 0 .012-.006.017-.006s.012 0 .012-.006a.9.9 0 00.605-1.1 5.225 5.225 0 00-1.419-2.364 6.071 6.071 0 00-3.321-1.69c-.11-.017-.219-.035-.329-.046a5.951 5.951 0 00-.64-.035c-.15 0-.3.006-.444.017a5.816 5.816 0 00-.934.144c-.063.012-.121.029-.185.046a6 6 0 00-1.124.421 5.923 5.923 0 00-1.6 1.148l-3.953 3.955A6.083 6.083 0 000 17.938a6.063 6.063 0 0010.345 4.28l3.765-3.765a.913.913 0 00-.732-1.551z"/><path d="M22.219 1.77a6.077 6.077 0 00-8.575 0L9.971 5.444a.927.927 0 00.582 1.58.937.937 0 00.732-.265l3.679-3.667a4.2 4.2 0 015.939 5.939l-3.956 3.956a4.175 4.175 0 01-.657.536 4.239 4.239 0 01-.853.432 4.037 4.037 0 01-.865.213 4.089 4.089 0 01-.588.04c-.081 0-.167-.006-.265-.012a4.144 4.144 0 01-3.644-2.681.921.921 0 00-1.1-.565.932.932 0 00-.652 1.182 5.267 5.267 0 001.367 2.162l.012.012a6.071 6.071 0 003.65 1.736 5.951 5.951 0 00.64.035q.225 0 .45-.017a6.593 6.593 0 001.113-.185 6 6 0 001.124-.421 5.923 5.923 0 001.6-1.148l3.956-3.956a6.07 6.07 0 00-.012-8.58z"/></g></svg>