<svg xmlns="http://www.w3.org/2000/svg" viewBox="0 0 173 182"><g fillRule="nonzero" stroke="#E0076C" strokeWidth="6" fill="none"><path d="M86.406 178.68a22.04 22.04 0 0015.632-6.474h0l26.649-26.65-.338-.05c-5.492-.867-10.568-3.386-14.633-7.311l-.346-.34-24.792-24.791c-.302-.303-.723-.425-1.13-.425-.409 0-.834.124-1.137.428h0l-24.88 24.88c-4.58 4.576-10.502 7.326-16.878 7.88l-.146.012 26.366 26.366a22.034 22.034 0 0015.186 6.47zM87.447 69.498c.41 0 .82-.154 1.134-.47h0l24.789-24.79c4.121-4.12 9.33-6.76 14.98-7.65l.338-.05-26.65-26.65a22.033 22.033 0 00-15.185-6.47l-.447-.005a22.038 22.038 0 00-15.632 6.475h0L44.408 36.254l.145.01c6.217.542 12.003 3.17 16.532 7.544l.346.34L86.31 69.03c.313.312.725.467 1.137.467z"/><path d="M161.686 73.293L142.66 54.267a3.621 3.621 0 01-1.351.273h-8.65c-4.473 0-8.851 1.813-12.01 4.975l-24.79 24.79a11.861 11.861 0 01-8.412 3.48 11.868 11.868 0 01-8.413-3.479l-24.881-24.88a17.097 17.097 0 00-12.01-4.977H31.505c-.454 0-.878-.107-1.278-.258L11.126 73.293c-9.805 9.805-9.805 25.702 0 35.508l19.1 19.1c.401-.15.826-.257 1.28-.257h10.636c4.473 0 8.85-1.814 12.01-4.976l24.88-24.879c4.497-4.493 12.335-4.495 16.827.002l24.79 24.786a17.093 17.093 0 0012.01 4.976h8.65c.48 0 .932.105 1.351.273l19.026-19.025c9.805-9.806 9.805-25.703 0-35.508"/></g></svg>