<svg xmlns="http://www.w3.org/2000/svg" viewBox="0 0 20.04 20"><path d="M15.4 20A15.42 15.42 0 010 4.6 4.6 4.6 0 014.6 0a3.94 3.94 0 01.77.07 3.79 3.79 0 01.72.18 1 1 0 01.65.75l1.37 6a1 1 0 01-.26.92c-.13.14-.14.15-1.37.79a9.91 9.91 0 004.87 4.89c.65-1.24.66-1.25.8-1.38a1 1 0 01.92-.26l6 1.37a1 1 0 01.72.65 4.34 4.34 0 01.19.73 4.77 4.77 0 01.06.76A4.6 4.6 0 0115.4 20zM4.6 2A2.61 2.61 0 002 4.6 13.41 13.41 0 0015.4 18a2.61 2.61 0 002.6-2.6v-.33L13.36 14l-.29.55c-.45.87-.78 1.5-1.62 1.16A11.85 11.85 0 014.27 8.5c-.36-.78.32-1.14 1.18-1.59L6 6.64 4.93 2z" fill="#e0076c"/></svg>