<svg xmlns="http://www.w3.org/2000/svg" viewBox="0 0 45.645 31.952"><g fill="#1de08f"><path d="M38.8 0H6.847A6.847 6.847 0 000 6.847V25.1a6.847 6.847 0 006.847 6.847H38.8a6.847 6.847 0 006.845-6.847V6.847A6.847 6.847 0 0038.8 0zM4.565 6.847a2.282 2.282 0 012.282-2.282H38.8a2.282 2.282 0 012.282 2.282v2.282H4.565zM41.081 25.1a2.282 2.282 0 01-2.281 2.287H6.847A2.282 2.282 0 014.565 25.1V13.694h36.516z"/><path d="M11.411 22.823h9.129a2.283 2.283 0 100-4.565h-9.129a2.283 2.283 0 100 4.565zM29.669 22.823h4.565a2.283 2.283 0 100-4.565h-4.565a2.283 2.283 0 100 4.565z"/></g></svg>