<svg xmlns="http://www.w3.org/2000/svg" viewBox="0 0 32 31.998"><g transform="translate(-1151.996 -1423.996)" fill="#e0076c"><path d="M1167.768 1455.994a3.27 3.27 0 01-2.293-.942l-11.392-11.41a1.777 1.777 0 01-.515-1.084L1152 1425.94a1.784 1.784 0 011.94-1.94l16.618 1.567a1.777 1.777 0 011.084.515l11.41 11.392a3.235 3.235 0 010 4.568l-13.01 13.01a3.235 3.235 0 01-2.274.942zm-10.668-14.414l10.668 10.664 12.532-12.53-10.666-10.663-13.88-1.3z"/><circle cx="3" cy="3" r="3" transform="translate(1159.996 1431.995)"/></g></svg>