<svg xmlns="http://www.w3.org/2000/svg" viewBox="0 0 52.235 36.407">
  <defs>
    <linearGradient id="testimonials" x1=".5" x2=".5" y2="1" gradientUnits="objectBoundingBox">
      <stop offset="0" stopColor="#99146d"/>
      <stop offset="1" stopColor="#b11266"/>
    </linearGradient>
  </defs>
  <g transform="translate(1896.618 -4906.89)" fill="url(#testimonials)">
    <path d="M-1876.696 4906.891l6.406 5v3.593s-8.173 6.61-7.421 12.733 3.437 7.968 3.437 7.968l-.469 2.5s-6.272 4.744-11.249 4.609-10.4-2.1-10.624-11.874 15.155-22.107 17.186-23.357 2.734-1.172 2.734-1.172z"/>
    <path d="M-1850.789 4906.891l6.406 5v3.593s-8.173 6.61-7.421 12.733 3.437 7.968 3.437 7.968l-.469 2.5s-6.272 4.744-11.249 4.609-10.4-2.1-10.624-11.874 15.155-22.107 17.186-23.357 2.734-1.172 2.734-1.172z"/>
  </g>
</svg>